<svg xmlns="http://www.w3.org/2000/svg" viewBox="0 0 42 42" id="camera">
  <path fill="#6196da" d="M6.22 18h30v13.14a5 5 0 0 1-5 5h-20a5 5 0 0 1-5-5V18Z"></path>
  <path fill="#fbffff" d="M6.22 13.3h30V18h-30z"></path>
  <path fill="#2d3d4d" d="M11.73 13.3 7.46 18H6.22v-4.7h5.51zM22.74 13.3 18.47 18H12.9l4.27-4.7h5.57zM33.75 13.3 29.48 18H23.9l4.27-4.7h5.58z"></path>
  <path fill="#fbffff" d="m5.79 8.623 29.873-2.761.432 4.68-29.872 2.76z"></path>
  <path fill="#2d3d4d" d="M11.7 12.79 7.02 8.51l-1.24.11.44 4.68 5.48-.51zM22.67 11.78 17.98 7.5l-5.54.51 4.68 4.28 5.55-.51zM33.63 10.77l-4.68-4.29-5.56.52 4.68 4.28 5.56-.51z"></path>
  <path fill="#fbffff" d="M17.43 27.07v-3.32a1.48 1.48 0 0 1 2.22-1.28l2.87 1.66 2.88 1.66a1.48 1.48 0 0 1 0 2.56L22.52 30l-2.87 1.66a1.48 1.48 0 0 1-2.22-1.28Z"></path>
</svg>
